:version 1.10
:name ASF
:units
  mass 1
  length 1
  angle deg
:documentation
  ASF file generated by Kaydara
:root
  axis xyz
  order  tx ty tz rx ry rz
  position 0 0 0
  orientation 0 0 0
:bonedata
  begin
    id 1
    name RightUpLegDummy
    direction -0.718183 -0.695806 0.00816078
    length 4.904
    axis 0 0 0 xyz
  end
  begin
    id 2
    name RightUpLeg
    direction 3.53373e-006 -0.995788 0.0916898
    length 17.4976
    axis -3.49089 -0.000906625 0.000286804 xyz
    dof rx ry rz
  end
  begin
    id 3
    name RightLeg
    direction 0.00371092 -0.995096 -0.0988419
    length 16.5821
    axis 3.68512 0.0193738 -0.131023 xyz
    dof rx ry rz
  end
  begin
    id 4
    name RightFoot
    direction 0.00079151 -0.46099 0.887405
    length 3.77069
    axis 4.81691e-005 -0.120479 -0.188788 xyz
    dof rx ry rz
  end
  begin
    id 5
    name RightToes
    direction 0 0 0
    length 0
    axis 0 0 0 xyz
    dof rx ry rz
  end
  begin
    id 6
    name SpineDummy
    direction 8.3039e-015 1 4.57515e-016
    length 4.6813
    axis 0 0 0 xyz
  end
  begin
    id 7
    name Spine
    direction -3.15643e-008 0.999988 0.00495137
    length 10.1015
    axis -0.001389 0.000121418 2.40972e-006 xyz
    dof rx ry rz
  end
  begin
    id 8
    name Spine1
    direction 0 0 0
    length 0
    axis -0.001389 0.000121451 1.30017e-006 xyz
    dof rx ry rz
  end
  begin
    id 9
    name HEadDummy
    direction -1.99912e-008 0.999999 0.00127422
    length 3.43865
    axis -0.001389 0.000121451 1.30017e-006 xyz
  end
  begin
    id 10
    name HEad
    direction 0 0 0
    length 0
    axis 0 0 0 xyz
    dof rx ry rz
  end
  begin
    id 11
    name LeftShoulder1Dummy
    direction 0.998891 -0.0402509 -0.0244456
    length 3.5433
    axis -0.001389 0.000121451 1.30017e-006 xyz
  end
  begin
    id 12
    name LeftShoulder1
    direction 0.99951 -0.000327763 0.0313091
    length 4.05031
    axis -0.001389 0.000121451 1.30017e-006 xyz
    dof rx ry rz
  end
  begin
    id 13
    name LeftArm
    direction 0.998561 -0.00100056 -0.0536182
    length 10.3537
    axis -23.1894 0.134784 0.967509 xyz
    dof rx ry rz
  end
  begin
    id 14
    name LeftForeArm
    direction 0.998903 0.00866432 0.046012
    length 8.70632
    axis -9.91835 -0.06569 -0.177794 xyz
    dof rx ry rz
  end
  begin
    id 15
    name LeftHand
    direction 0 0 0
    length 0
    axis 0 0 0 xyz
    dof rx ry rz
  end
  begin
    id 16
    name RightShoulderDummy
    direction -0.998891 -0.0402509 -0.0244414
    length 3.5433
    axis -0.001389 0.000121451 1.30017e-006 xyz
  end
  begin
    id 17
    name RightShoulder
    direction -0.99951 -0.000327807 0.0313133
    length 4.05031
    axis 0.215806 0.000203643 -0.0068026 xyz
    dof rx ry rz
  end
  begin
    id 18
    name RightArm
    direction -0.998573 -0.000999564 -0.053403
    length 10.3947
    axis -23.2009 -0.134239 -0.964101 xyz
    dof rx ry rz
  end
  begin
    id 19
    name RightForeArm
    direction -0.998898 0.00868028 0.0461306
    length 8.68355
    axis -9.92322 0.0658061 0.178868 xyz
    dof rx ry rz
  end
  begin
    id 20
    name RightHand
    direction 0 0 0
    length 0
    axis 0 0 0 xyz
    dof rx ry rz
  end
  begin
    id 21
    name LeftUpLegDummy
    direction 0.718183 -0.695806 0.00816078
    length 4.904
    axis 0 0 0 xyz
  end
  begin
    id 22
    name LeftUpLeg
    direction -6.81752e-006 -0.995793 0.0916337
    length 17.4976
    axis -3.48766 0.00143442 -0.000524262 xyz
    dof rx ry rz
  end
  begin
    id 23
    name LeftLeg
    direction -0.00601358 -0.995091 -0.0987824
    length 16.5821
    axis 3.68178 -0.00654042 -0.000285133 xyz
    dof rx ry rz
  end
  begin
    id 24
    name LeftFoot
    direction -0.00417578 -0.460984 0.887399
    length 3.77069
    axis 1.87233e-006 4.66016e-005 -8.6538e-006 xyz
    dof rx ry rz
  end
  begin
    id 25
    name LeftToes
    direction 0 0 0
    length 0
    axis 0 0 0 xyz
    dof rx ry rz
  end
:hierarchy
  begin
    root RightUpLegDummy SpineDummy LeftUpLegDummy
    RightUpLegDummy RightUpLeg
    RightUpLeg RightLeg
    RightLeg RightFoot
    RightFoot RightToes
    SpineDummy Spine
    Spine Spine1
    Spine1 HEadDummy LeftShoulder1Dummy RightShoulderDummy
    HEadDummy HEad
    LeftShoulder1Dummy LeftShoulder1
    LeftShoulder1 LeftArm
    LeftArm LeftForeArm
    LeftForeArm LeftHand
    RightShoulderDummy RightShoulder
    RightShoulder RightArm
    RightArm RightForeArm
    RightForeArm RightHand
    LeftUpLegDummy LeftUpLeg
    LeftUpLeg LeftLeg
    LeftLeg LeftFoot
    LeftFoot LeftToes
  end

:SAMPLES-PER-SECOND 30
:FULLY-SPECIFIED
:DEGREES
1
root  71.1227 40.4293 -1.04938 -146.968 -87.9047 147.437
RightUpLeg  1.28865 -8.38896 -6.07078
RightLeg  4.91182 -2.85311 3.23889
RightFoot  -4.66867 -0.0287316 0.0487414
RightToes  0.000481921 0.542163 -0.142578
Spine  0.0495183 -0.075261 -3.3898
Spine1  5.26979 -0.881744 4.04231
HEad  1.11265 5.15703 -1.52132
LeftShoulder1  0.432212 1.05195 -10.0809
LeftArm  -18.9553 7.02755 -2.06894
LeftForeArm  22.8969 -1.93922 -0.897234
LeftHand  -0.25398 0.0180481 5.50724
RightShoulder  0.244634 -1.65902 5.47931
RightArm  -26.9154 -3.12273 2.31422
RightForeArm  2.16779 0.879831 0.766967
RightHand  -1.77558 7.72993 -16.0463
LeftUpLeg  1.99662 3.83303 0.846901
LeftLeg  2.2787 12.9223 -3.41394
LeftFoot  -4.1263 -0.0134966 0.713261
LeftToes  1.06246e-005 4.65868e-005 -8.65513e-006
2
root  71.1258 40.4293 -1.04938 -146.729 -87.9194 147.178
RightUpLeg  1.30612 -8.39938 -6.07536
RightLeg  4.91568 -2.86468 3.24649
RightFoot  -4.67285 -0.0250787 -0.00797434
RightToes  0.000481921 0.542163 -0.142578
Spine  -0.188712 -0.115195 -3.29851
Spine1  5.61945 -0.874841 3.80788
HEad  4.15295 1.97566 0.722648
LeftShoulder1  0.414961 1.11358 -9.78763
LeftArm  -19.0709 6.90374 -2.3498
LeftForeArm  23.0473 -1.73704 -0.839362
LeftHand  -0.25398 0.0180481 5.50724
RightShoulder  0.267911 -1.52262 5.77165
RightArm  -26.7465 -3.17884 2.13984
RightForeArm  1.68402 0.994746 0.858874
RightHand  -1.72715 7.35645 -16.0589
LeftUpLeg  2.00419 3.82246 0.846254
LeftLeg  2.29514 12.9014 -3.39903
LeftFoot  -4.13831 -0.0140135 0.721295
LeftToes  1.06246e-005 4.65868e-005 -8.65513e-006
3
root  71.1319 40.4293 -1.04933 -146.83 -87.9208 147.246
RightUpLeg  1.32837 -8.41815 -6.08787
RightLeg  4.92807 -2.85097 3.26289
RightFoot  -4.68557 -0.0228816 -0.0420893
RightToes  0.000481921 0.542163 -0.142578
Spine  -0.426239 -0.113988 -3.0976
Spine1  5.90558 -0.77282 3.35742
HEad  3.45642 2.21204 0.554867
LeftShoulder1  0.460321 0.787379 -9.36864
LeftArm  -18.9119 7.05308 -2.50286
LeftForeArm  22.9509 -1.50261 -0.854565
LeftHand  -0.25398 0.0180481 5.50724
RightShoulder  0.30394 -1.33327 6.317
RightArm  -26.3452 -3.38535 1.75539
RightForeArm  0.643249 1.18533 1.04531
RightHand  -1.63289 6.60314 -16.1168
LeftUpLeg  2.02431 3.82164 0.846204
LeftLeg  2.31747 12.8933 -3.39076
LeftFoot  -4.16657 -0.0117865 0.686682
LeftToes  1.06246e-005 4.65868e-005 -8.65513e-006
4
root  71.1374 40.4293 -1.04894 -147.472 -87.893 147.869
RightUpLeg  1.34038 -8.43016 -6.09906
RightLeg  4.92734 -2.80256 3.27913
RightFoot  -4.6899 -0.0242605 -0.0206791
RightToes  0.000481921 0.542163 -0.142578
Spine  -0.451728 -0.0567526 -2.96532
Spine1  5.81114 -0.640909 3.05786
HEad  3.03547 2.09588 0.163602
LeftShoulder1  0.547826 0.231391 -9.18163
LeftArm  -18.4714 7.47634 -2.3157
LeftForeArm  22.5717 -1.44396 -0.97334
LeftHand  -0.25398 0.0180481 5.50724
RightShoulder  0.329434 -1.20654 6.69888
RightArm  -26.0083 -3.63984 1.42361
RightForeArm  -0.205204 1.27767 1.17727
RightHand  -1.56168 6.03764 -16.1597
LeftUpLeg  2.05182 3.82878 0.845796
LeftLeg  2.3057 12.9256 -3.39649
LeftFoot  -4.18481 -0.00902708 0.643796
LeftToes  1.06246e-005 4.65868e-005 -8.65513e-006
5
root  71.1425 40.4293 -1.04852 -148.067 -87.8596 148.449
RightUpLeg  1.35318 -8.4216 -6.09973
RightLeg  4.90491 -2.76388 3.27736
RightFoot  -4.68407 -0.026927 0.0207236
RightToes  0.000481921 0.542163 -0.142578
Spine  -0.39674 -0.027668 -2.96276
Spine1  5.62031 -0.596279 3.01125
HEad  2.78819 1.98142 -0.229277
LeftShoulder1  0.57475 0.066684 -9.17465
LeftArm  -18.2343 7.6879 -2.18619
LeftForeArm  22.3197 -1.4675 -1.04925
LeftHand  -0.25398 0.0180481 5.50724
RightShoulder  0.332603 -1.18678 6.71279
RightArm  -26.0328 -3.72072 1.39551
RightForeArm  -0.155402 1.18114 1.13782
RightHand  -1.56625 6.09592 -16.129
LeftUpLeg  2.08214 3.82423 0.839838
LeftLeg  2.26184 12.9713 -3.3975
LeftFoot  -4.17855 -0.00838341 0.633792
LeftToes  1.06246e-005 4.65868e-005 -8.65513e-006
6
root  71.1519 40.4293 -1.04843 -148.409 -87.8352 148.76
RightUpLeg  1.37775 -8.40019 -6.09452
RightLeg  4.88669 -2.74541 3.25801
RightFoot  -4.67911 -0.0286243 0.0470756
RightToes  0.000481921 0.542163 -0.142578
Spine  -0.363237 -0.0445332 -2.97867
Spine1  5.55475 -0.613012 3.01038
HEad  2.82981 1.93681 -0.149866
LeftShoulder1  0.538475 0.27962 -9.13822
LeftArm  -18.3034 7.61861 -2.27505
LeftForeArm  22.2951 -1.46104 -1.03447
LeftHand  -0.25398 0.0180481 5.50724
RightShoulder  0.315494 -1.28467 6.55744
RightArm  -26.2919 -3.58684 1.58537
RightForeArm  0.515488 0.994677 1.0004
RightHand  -1.62332 6.54243 -16.1022
LeftUpLeg  2.11474 3.80959 0.827569
LeftLeg  2.23101 13.0055 -3.38473
LeftFoot  -4.16062 -0.00793651 0.626847
LeftToes  1.06246e-005 4.65868e-005 -8.65513e-006
7
root  71.169 40.4296 -1.04903 -148.928 -87.8052 149.234
RightUpLeg  1.39887 -8.38709 -6.09008
RightLeg  4.88318 -2.70399 3.24745
RightFoot  -4.67317 -0.0291156 0.054704
RightToes  0.000481921 0.542163 -0.142578
Spine  -0.290229 -0.0371748 -2.9437
Spine1  5.48387 -0.587035 2.92833
HEad  3.0544 1.94931 0.256064
LeftShoulder1  0.548091 0.218066 -9.11958
LeftArm  -18.2297 7.75989 -2.16451
LeftForeArm  22.1611 -1.52062 -1.05384
LeftHand  -0.25398 0.0180481 5.50724
RightShoulder  0.294752 -1.42461 6.51055
RightArm  -26.4036 -3.44907 1.6833
RightForeArm  0.85395 0.879904 0.935598
RightHand  -1.66507 6.78419 -16.1908
LeftUpLeg  2.13467 3.79167 0.817025
LeftLeg  2.23705 13.0559 -3.35662
LeftFoot  -4.14112 -0.00668085 0.607332
LeftToes  1.06246e-005 4.65868e-005 -8.65513e-006
